<svg id="visual" viewBox="0 0 1080 1920" width="1080" height="1920" xmlns="http://www.w3.org/2000/svg" xmlns:xlink="http://www.w3.org/1999/xlink" version="1.1"><path d="M0 577L98 423L196 558L295 615L393 692L491 366L589 385L687 769L785 423L884 539L982 577L1080 635L1080 0L982 0L884 0L785 0L687 0L589 0L491 0L393 0L295 0L196 0L98 0L0 0Z" fill="#00cc8e"></path><path d="M0 769L98 577L196 788L295 807L393 923L491 481L589 539L687 884L785 577L884 769L982 711L1080 769L1080 633L982 575L884 537L785 421L687 767L589 383L491 364L393 690L295 613L196 556L98 421L0 575Z" fill="#00b98a"></path><path d="M0 1134L98 1460L196 1172L295 1307L393 1460L491 1172L589 1191L687 1230L785 1249L884 1326L982 1345L1080 1172L1080 767L982 709L884 767L785 575L687 882L589 537L491 479L393 921L295 805L196 786L98 575L0 767Z" fill="#00a784"></path><path d="M0 1614L98 1710L196 1671L295 1652L393 1710L491 1633L589 1499L687 1556L785 1537L884 1595L982 1710L1080 1556L1080 1170L982 1343L884 1324L785 1247L687 1228L589 1189L491 1170L393 1458L295 1305L196 1170L98 1458L0 1132Z" fill="#00957c"></path><path d="M0 1921L98 1921L196 1921L295 1921L393 1921L491 1921L589 1921L687 1921L785 1921L884 1921L982 1921L1080 1921L1080 1554L982 1708L884 1593L785 1535L687 1554L589 1497L491 1631L393 1708L295 1650L196 1669L98 1708L0 1612Z" fill="#038373"></path></svg>