<?xml version="1.0" encoding="UTF-8" standalone="no"?>
<!-- Created with Inkscape (http://www.inkscape.org/) -->

<svg
   xmlns:dc="http://purl.org/dc/elements/1.1/"
   xmlns:cc="http://creativecommons.org/ns#"
   xmlns:rdf="http://www.w3.org/1999/02/22-rdf-syntax-ns#"
   xmlns:svg="http://www.w3.org/2000/svg"
   xmlns="http://www.w3.org/2000/svg"
   xmlns:sodipodi="http://sodipodi.sourceforge.net/DTD/sodipodi-0.dtd"
   xmlns:inkscape="http://www.inkscape.org/namespaces/inkscape"
   width="225.77777mm"
   height="268.70035mm"
   viewBox="0 0 799.99998 952.08784"
   id="svg5065"
   version="1.1"
   inkscape:version="0.91 r13725"
   sodipodi:docname="Branch3.svg">
  <defs
     id="defs5067" />
  <sodipodi:namedview
     id="base"
     pagecolor="#ffffff"
     bordercolor="#666666"
     borderopacity="1.0"
     inkscape:pageopacity="0.0"
     inkscape:pageshadow="2"
     inkscape:zoom="0.70371658"
     inkscape:cx="399.99999"
     inkscape:cy="476.04392"
     inkscape:document-units="px"
     inkscape:current-layer="layer1"
     showgrid="false"
     fit-margin-top="0"
     fit-margin-left="0"
     fit-margin-right="0"
     fit-margin-bottom="0"
     inkscape:window-width="1600"
     inkscape:window-height="837"
     inkscape:window-x="-8"
     inkscape:window-y="-8"
     inkscape:window-maximized="1" />
  <metadata
     id="metadata5070">
    <rdf:RDF>
      <cc:Work
         rdf:about="">
        <dc:format>image/svg+xml</dc:format>
        <dc:type
           rdf:resource="http://purl.org/dc/dcmitype/StillImage" />
        <dc:title></dc:title>
      </cc:Work>
    </rdf:RDF>
  </metadata>
  <g
     inkscape:label="Layer 1"
     inkscape:groupmode="layer"
     id="layer1"
     transform="translate(-2.8149834,-65.734235)">
    <g
       style="stroke:none"
       id="palma"
       transform="matrix(3.2551526,0,0,3.2192638,-42.579874,-67.195811)">
      <path
         inkscape:connector-curvature="0"
         style="fill:#00a854;fill-opacity:1;stroke:none"
         id="path2721"
         d="m 102.29126,43.254758 c -12.599996,4.2 -25.899996,14.3 -34.199996,25.9 -1.8,2.5 -3.4,4.4 -3.6,4.2 -0.1,-0.2 0.8,-5.3 2.2,-11.3 1.4,-6 2.5,-12 2.4,-13.4 0,-2.3 -0.2,-2.2 -4,2 -4.8,5.4 -11.1,17.3 -13.5,25.5 -1.3,4.4 -1.8,9.3 -1.8,18.4 l 0.1,12.500002 -2.4,-8.800002 c -2.5,-9.4 -5.1,-15.8 -7.7,-19.1 -1.3,-1.7 -1.7,-1.8 -2.6,-0.5 -1.9,2.9 -0.6,15.3 2.6,24.500002 0.3,1.1 -0.9,-0.5 -2.7,-3.500002 -1.9,-3 -3.9,-5.3 -4.4,-5 -1.2,0.6 -1.3,10.400002 -0.1,14.500002 0.9,2.9 0.9,2.9 -2.5,-1 -5.6,-6.5 -6.9,-7 -6.9,-2.5 0,1.7 0.7,4.7 1.5,6.7 0.8,1.9 1.5,3.7 1.5,3.8 0,0.1 -1.4,0.5 -3.2,0.9 -4.4,0.9 -5.8,2.3 -5.8,6 0,4 2.7,13.3 4.1,14.2 1.5,0.9 2,0 3.3,-5.8 l 1.2,-5.2 3.7,4.8 c 5.3,7 13.2,23 17.2,34.9 4.2,12.7 4.4,15.2 0.5,7.4 -1.6,-3.1 -4.4,-7.8 -6.1,-10.4 -3.8,-5.4 -24.7,-27.3 -26.1,-27.3 -1.5,0 0,6.8 2.7,12.5 1.3,2.8 5.2,8.3 8.5,12.3 3.4,3.9 5.9,7.2 5.6,7.2 -0.3,0 -2.7,-1.6 -5.2,-3.5 -5.1,-3.9 -10.3,-6.9 -11,-6.3 -0.2,0.3 1.8,4.5 4.5,9.5 l 4.8,9.1 -3.2,-0.5 c -1.8,-0.3 -4.2,0 -5.4,0.6 -1.8,1 -2.1,2.1 -2.1,6.9 0,6.4 1.6,13.2 3.1,13.2 1.4,0 3.9,-6.3 3.9,-9.7 0,-2.7 0.1,-2.6 5.1,2.2 7.1,7 16.6,18.9 26,32.7 l 7.9,11.7 -9.3,-7 c -8.9,-6.6 -27.2,-16.9 -30.2,-16.9 -0.8,0 -1.5,0.4 -1.5,0.9 0,0.5 5.9,6.5 13.1,13.4 l 13,12.5 -6.8,-2.3 c -3.7,-1.2 -8.4,-2.5 -10.3,-2.9 -3.4,-0.7 -3.4,-0.5 4.2,6.6 4.2,4 11.8,9.9 17,13.2 5.1,3.2 8.4,5.5 7.3,5.2 -9.1,-2.6 -22.5,-4.8 -22.5,-3.6 0,1.4 6.9,6.9 11.8,9.4 2.7,1.3 9.5,4.1 15.2,6 11.6,4.1 18.6,7.8 24.5,13 l 4,3.6 -7,-3.1 c -8,-3.6 -29.7,-10.9 -32.2,-10.9 -2.5,0 7.5,9.9 17.2,17.2 8.9,6.7 25.8,15.2 37.999996,19.2 10.2,3.3 18.8,5 35,7.1 7.2,0.9 14,2 15.3,2.5 1.2,0.6 10,1.9 19.5,3 27.8,3.3 48.1,8.1 60,14.2 3.2,1.6 6.7,2.2 14,2.6 10.8,0.5 11.3,0.2 8.2,-5.8 -2.6,-5 -7.2,-7.6 -17,-9.4 -4.9,-1 -13,-2.6 -18,-3.6 -10.5,-2.2 -30.7,-5.8 -56.3,-9.9 -27.5,-4.5 -39.4,-9.3 -52.3,-21 -19.099996,-17.2 -29.099996,-45.1 -25.999996,-72.7 0.7,-5.9 1.1,-10.8 0.9,-11 -0.9,-0.8 -7.3,12.5 -9,18.5 l -1.8,6.6 0.4,-10.6 c 0.7,-16.5 6.8,-31.9 16,-40.8 2,-1.9 3.6,-3.8 3.6,-4.2 0,-0.4 -1.9,-0.2 -4.2,0.4 -3,0.7 -5.9,2.6 -9.5,6.3 l -5.2,5.2 2.4,-4.7 c 3.7,-7.4 10.1,-14.8 16.2,-18.9 l 5.699996,-3.7 -3.3,-0.3 c -6.599996,-0.7 -18.499996,8 -25.099996,18.4 -3.8,6.1 -3.8,4.2 0.1,-5.1 3.7,-9.1 9.4,-18 15.6,-24.6 3.5,-3.7 4.1,-4.9 2.8,-4.9 -5.2,0 -14,6.8 -21.3,16.5 -2.1,2.9 -2.1,2.7 0.3,-3 3,-6.8 7.6,-14.4 11.9,-19.2 3.1,-3.6 2.2,-4.1 -3,-1.7 -4.7,2.3 -12.3,10.8 -16.7,19 -2.1,3.8 -3.6,6 -3.3,4.9 0.3,-1.1 1,-4 1.5,-6.5 3.7,-16.6 12.7,-32.8 24.9,-44.7 4.7,-4.5 5.9,-6.300002 4.6,-6.300002 -3.8,0 -12.7,5.100002 -18.6,10.700002 -6.1,5.8 -6.2,5.8 -3.8,1.8 8.4,-14.300002 21,-27.300002 35.499996,-36.600002 4.6,-3 8.4,-5.7 8.5,-6 0,-1.5 -15.199996,3.1 -22.099996,6.6 -1.6,0.9 -5.4,3.6 -8.6,6.2 -4.8,3.9 -5.3,4.2 -3.5,1.6 3.4,-4.8 14.9,-15.1 19.5,-17.5 3.399996,-1.8 3.799996,-2.3 2.099996,-2.6 -4.599996,-0.7 -17.399996,6.1 -27.399996,14.5 l -4.4,3.8 2.4,-4 c 7.8,-12.9 17.4,-23.2 28.699996,-30.6 4,-2.6 7.9,-4.9 8.6,-5.2 0.6,-0.2 1,-0.7 0.7,-1 -0.3,-0.3 -3.9,0.5 -7.9,1.9 z m 150.3,286.000002 c 1.4,1.5 2.6,3.1 2.6,3.5 0,0.5 -2.2,0.9 -5,0.9 -4.8,0 -5,-0.1 -5,-2.8 0,-5.1 3.2,-5.7 7.4,-1.6 z" />
      <path
         inkscape:connector-curvature="0"
         style="fill:#9eab05;fill-opacity:1;stroke:none"
         id="path2773"
         d="m 246.28009,327.46711 c -2.4,2.3 -2,6.1 0.7,6.8 4.2,1.1 9.7,0.7 9.7,-0.8 0,-1.5 -6.4,-7.6 -8,-7.6 -0.5,0 -1.6,0.7 -2.4,1.6 z" />
      <path
         inkscape:connector-curvature="0"
         style="fill:#cab313;fill-opacity:0.50196078;stroke:none"
         id="path2775"
         transform="matrix(1.7333826,0,0,1.7492431,-462.73162,-273.88998)"
         d="m 328.96875,180.3125 c -6.10131,1.06689 -11.42257,4.70293 -16.09375,8.59375 -0.6513,0.60237 -1.00683,0.94419 -1.03125,1.03125 -0.34413,0.39132 -3.4401,3.153 -5.34375,5.8125 -0.92519,1.0696 -2.20936,2.8963 -2.875,4 0.14296,-1.08487 0.95444,-4.33719 1.78125,-8 0.9263,-4.36002 1.33454,-7.89039 1.21875,-8.0625 -0.57894,-0.51632 -4.75958,4.96833 -6.84375,9.15625 -3.06836,6.02372 -3.96875,10.17595 -3.96875,18.78125 l -0.0625,7.15625 -1.40625,-5.4375 c -1.50523,-5.67951 -4.09673,-11.59329 -5.3125,-11.9375 -0.40526,-0.11474 -0.86218,0.70151 -1.09375,1.90625 -0.34736,1.89317 -0.0253,3.71607 2.40625,13.46875 0.17368,0.80317 -0.45331,0.0648 -1.4375,-1.65625 -2.19996,-3.84371 -2.95692,-4.71408 -3.59375,-4.3125 l 1.5625,2.25 c 0.8684,1.26212 2.42666,4.24677 3.46875,6.65625 2.83679,6.71213 7.06972,20.93658 6.375,21.625 -0.17368,0.11473 -0.52303,-0.34795 -0.8125,-1.09375 -0.28947,-0.74579 -1.08653,-2.91933 -1.78125,-4.8125 -0.69472,-1.89316 -2.25298,-5.29388 -3.46875,-7.53125 -2.721,-4.99108 -4.68849,-10.49492 -5.09375,-14.28125 l -0.3125,-2.78125 c -0.80163,0.62399 -0.47691,3.94436 0.65625,7.59375 0.57894,1.95054 1.02664,3.5 0.96875,3.5 -0.11579,0 -1.36976,-1.60683 -2.875,-3.5 -2.08417,-2.63897 -2.90725,-3.32368 -3.3125,-2.75 -0.52104,0.86054 -0.21577,2.56859 1,5.78125 l 0.78125,2.1875 -1.90625,0 c -1.04209,0 -2.35856,0.34841 -2.9375,0.75 -0.98419,0.68841 -1.04769,1.14694 -0.46875,4.1875 0.66578,3.75765 1.59768,6.51702 2.3125,6.5625 1.14444,0.0728 1.11039,-1.13158 1.6875,-4.40625 0.23181,-0.93887 0.63043,-1.51834 0.71875,-2.0625 0.24513,0.34431 0.59741,0.76373 1.09375,1.28125 4.87088,6.64131 9.25497,15.73655 11.28125,21.875 1.62102,4.87634 4.62861,17.71828 4.28125,18.0625 -0.11579,0.1721 -0.83192,-2.00144 -1.46875,-4.8125 -2.31575,-9.75269 -5.58736,-15.51784 -15.71875,-25.5 0,0 -3.47718,-4.16796 -6.28125,-5.78125 0.0463,2.35067 0.53125,2.75 0.53125,2.75 0.69472,3.55687 2.48628,6.65306 7.8125,12.90625 2.37364,2.81107 4.28125,5.30177 4.28125,5.53125 0,0.17211 -1.32108,-0.88339 -3,-2.375 -3.06836,-2.69631 -7.8181,-5.77146 -8.28125,-5.3125 -0.17368,0.11474 0.96812,2.63669 2.53125,5.5625 1.96838,3.6716 2.57433,5.16698 1.9375,4.9375 -2.25785,-0.91789 -3.08391,-0.91789 -4.53125,0 -1.50524,0.97527 -1.50361,1.06767 -1.15625,4.96875 0.17368,2.18 0.65264,4.53033 1,5.21875 0.69472,1.14738 0.68028,1.1581 1.375,-0.21875 0.40526,-0.74579 0.86218,-2.35776 1.09375,-3.5625 0.23158,-1.14738 0.57632,-2.125 0.75,-2.125 0.1954,0 3.13248,3.06372 4.5625,4.46875 0.57152,0.74579 1.23825,1.55779 1.9375,2.40625 3.41573,4.18792 12.84972,16.25005 15.28125,20.09375 l 1.21875,2 -1.96875,-1.53125 c -6.54198,-5.61234 -17.25994,-11.88901 -21.3125,-13.09375 -1.1344,-0.33724 -1.43905,-0.013 -0.90625,0.59375 -0.0194,0.002 -0.051,-0.0109 -0.0625,0 2.78146,3.76268 10.95168,10.63039 13.09375,12.4375 2.14207,1.80711 2.12039,2.47901 2.0625,2.59375 -0.11579,0.0574 -1.60893,-0.63948 -4.15625,-1.5 -6.54198,-2.29475 -8.24341,-2.34513 -7.375,-1.3125 0.40526,0.45895 1.3862,0.78638 2.3125,0.84375 3.35783,0.0574 11.8761,3.79156 17.78125,7.75 3.82098,2.58159 12.97173,11.299 14.1875,13.59375 0.63683,1.26212 0.4095,1.14316 -1.90625,-0.75 -3.12626,-2.52423 -11.80528,-7.46407 -12.5,-7.0625 -0.23157,0.17211 -2.26879,-0.20757 -4.46875,-0.78125 -2.25785,-0.57369 -5.62076,-1.20804 -7.53125,-1.4375 L 286.25,301 l 2.03125,1.84375 c 2.66311,2.40949 7.12086,4.57465 14.53125,7.15625 3.29994,1.14737 7.07009,2.6917 8.34375,3.4375 2.7789,1.60632 8.50822,6.08816 8.21875,6.375 -0.11579,0.11474 -2.22472,-0.69124 -4.65625,-1.78125 -4.11045,-1.89316 -14.28559,-5.44684 -17.875,-6.25 -1.33155,-0.28684 -0.87987,0.27662 2.59375,3.71875 2.31575,2.18001 6.26518,5.40394 8.8125,7.125 12.27346,8.089 23.39907,11.65301 44.125,14.0625 3.29994,0.40159 5.76743,0.90064 5.59375,1.1875 -0.17368,0.28684 5.04057,1.05645 10.65625,1.6875 15.05235,1.77844 24.43634,3.83913 33.0625,7.28125 3.76308,1.54896 5.97409,2.05177 9.96875,2.28125 3.82099,0.22948 5.125,0.17256 5.125,-0.34375 0,-1.3195 -1.65662,-3.90394 -3.625,-5.625 -1.73681,-1.49159 -2.8873,-2.38387 -9.71875,-3.53125 -4.28413,-0.68842 -8.1352,-1.61941 -8.65625,-1.90625 -0.52104,-0.28684 -9.12223,-1.48743 -18.90625,-3.09375 -21.47854,-3.44213 -28.08104,-4.9963 -33.8125,-7.75 -14.18395,-6.88425 -23.84574,-21.86727 -24.65625,-39.25 -0.17368,-3.49948 -0.0661,-8.07512 0.28125,-10.3125 0.34736,-2.18001 0.58454,-4.07276 0.46875,-4.1875 -0.52104,-0.51631 -4.89903,8.20899 -5.59375,11.59375 l -0.28125,2.1875 -0.21875,-3.9375 c -0.0579,-8.94952 2.81983,-16.74121 7.625,-23.28125 0,0 3.20714,-3.16082 3.65625,-4 0.0308,-0.0247 0.0297,-0.064 0.0312,-0.0937 0.015,-0.0444 0.0157,-0.0758 0,-0.0937 -0.017,-0.0194 -0.0222,-0.0431 -0.0625,-0.0312 -0.0125,-0.012 -0.015,-0.0192 -0.0312,-0.0312 -2.2907,-0.7179 -4.76227,1.16816 -8.09375,4.15625 -2.06956,2.09188 -2.35296,2.6096 -2.46875,2.4375 0.1309,-1.50192 6.12798,-10.625 7.34375,-10.625 0.23157,0 1.70715,-1.73369 2.25,-2.25 0.69472,-1.77843 -3.58328,2.16095 -6.59375,6.40625 -6.75049,9.01215 -8.28486,18.11908 -7.9375,30.28125 0.11579,3.72896 -0.16086,6.65625 -0.21875,6.65625 -0.28947,0 -2.03785,-4.34519 -2.90625,-7.15625 -2.19996,-7.11373 1.17478,-21.95344 6.90625,-29.46875 0.98419,-1.26211 3.37534,-3.99721 3.75,-4.625 0.81051,-1.54895 -3.95069,3.8298 -5.6875,6.46875 -0.393,0.79516 -0.93717,1.28197 -1.03125,1.09375 -0.0941,-0.18821 0.20483,-1.0423 0.65625,-2.4375 2.14207,-6.2532 5.84186,-12.70156 10.53125,-17.75 1.73681,-1.89317 1.79109,-1.87032 0.34375,-1.46875 -3.41573,0.97528 -6.5013,3.61575 -9.84375,7.4375 -0.81051,1.26212 -1.54507,1.93611 -2.46875,3 0.31927,-1.56424 3.32768,-7.91188 5.875,-11.46875 1.56313,-2.12264 3.06249,-3.5599 3,-4.03125 -0.0625,-0.47135 -1.68669,0.0351 -4.03125,1.78125 -3.53151,2.58159 -5.53795,5.30803 -8.5625,10.25 -1.38945,2.81108 -1.18737,2.02115 -1.65625,2.53125 1.56313,-7.91688 2.67604,-11.64932 5.28125,-16.8125 2.37364,-4.64687 4.69844,-7.79062 9.15625,-12.4375 3.12626,-3.21265 3.75623,-4.12547 2.65625,-3.78125 -3.41573,1.03264 -7.04381,3.32372 -10.34375,6.59375 -1.91049,1.95054 -2.6875,2.53684 -2.6875,2.25 0,-0.28685 0.93326,-1.8867 2.84375,-4.8125 4.05256,-6.19583 9.91195,-12.63531 15.875,-16.59375 2.95258,-2.00791 7.6148,-4.21829 7.09375,-4.5625 -0.0526,-0.0348 -0.14488,-0.0562 -0.25,-0.0625 0.31038,-0.50707 -1.32646,-0.15203 -5.46875,1.125 -4.11046,1.26211 -8.51094,3.71413 -12.96875,7.15625 -1.723,1.61589 -1.38249,0.28167 2.84375,-3.90625 2.25785,-2.29475 5.73194,-5.08723 7.46875,-6.0625 2.89469,-1.72106 2.6651,-2.12033 0.8125,-1.71875 -4.34202,0.86053 -12.69347,5.61571 -15.125,8.65625 -0.014,0.0172 -0.0178,0.0147 -0.0312,0.0312 -0.10367,0.0403 -0.19574,0.0538 -0.34375,0.125 -1.31434,0.80911 -2.58519,2.6254 -2.28125,1.84375 0.30394,-0.78165 0.96582,-1.44196 2.5,-3.9375 4.68939,-7.57267 10.91232,-13.10826 18.84375,-17.8125 1.95392,-1.18323 2.03132,-1.76273 0.65625,-1.625 z M 285.25,210.84375 c 0.0175,-0.0136 0.044,-0.0202 0.0625,-0.0312 l -0.0625,-0.0625 0,0.0937 z m 39.15625,-28.375 c 0.0695,0.002 0.12368,0.0338 0.15625,0.0625 0.11579,0.17211 -0.61877,0.80644 -1.71875,1.4375 -2.14206,1.37685 -9.37175,8.49584 -11.6875,11.59375 -2.95258,3.84371 -6.3974,10.08728 -8.25,14.90625 -1.04209,2.69634 -1.84375,4.45895 -1.84375,4 -0.0579,-1.26211 1.58192,-9.73137 2.21875,-11.96875 0.19292,-0.60537 0.29369,-1.18278 0.34375,-1.625 0.29011,-0.18216 0.74504,-0.68813 1.5,-1.875 0.37799,-0.5886 1.64154,-2.41699 2.9375,-3.96875 1.29596,-1.60527 5.32675,-5.83048 5.21875,-5.9375 -0.0157,-0.0155 -0.0758,0.0202 -0.125,0.0312 0.39608,-0.28373 0.80812,-0.58672 1.40625,-1.03125 3.79927,-2.79673 8.8017,-5.65819 9.84375,-5.625 z M 305.375,185.5625 c 0.042,-0.003 0.0793,0.0159 0.0937,0.0625 0.11579,0.34421 -0.60595,5.33076 -1.9375,11.125 -2.66311,12.21954 -4.60856,21.80372 -5.1875,28.34375 -0.40526,4.01582 -0.52764,4.37219 -0.875,2.59375 -0.28947,-1.09 -0.61217,-6.66424 -0.84375,-12.34375 -0.40526,-11.24427 0.0428,-14.52806 2.9375,-20.78125 1.62826,-3.60347 5.18282,-8.95756 5.8125,-9 z m 15.59375,9.40625 c 0.17368,0 -1.37997,1.54946 -3.40625,3.5 -8.27879,7.68741 -14.30763,18.03512 -17.78125,30.65625 l -1.09375,4 0.34375,-3.71875 c 0.17368,-2.06527 0.59474,-5.29433 1,-7.1875 0.52104,-2.29475 1.74906,-6.08019 3,-9.46875 1.25094,-3.38857 2.43031,-6.27123 4.96875,-8.8125 0.55155,-0.58322 1.71523,-1.62867 2,-2.09375 0.60756,-0.43054 1.51695,-1.09376 3.15625,-2.375 2.31575,-1.8358 6.94409,-4.5 7.8125,-4.5 z m 6.84375,2.90625 c 0.27115,-0.0136 0.40625,0.0297 0.40625,0.1875 0,0.11474 -1.5178,1.17026 -3.3125,2.375 -4.39992,2.86844 -12.55664,11.31161 -15.625,15.84375 -2.7789,4.13055 -6.98655,12.24307 -8.78125,17.40625 -1.62102,4.76161 -1.51806,2.20188 0.21875,-4.625 1.56313,-6.02372 5.45189,-14.99433 8.375,-19.34375 0.5427,-0.78845 0.86636,-1.28115 1.65625,-2.34375 0.78416,-0.88714 1.02303,-1.32836 1.3125,-1.15625 0.28947,0.17211 1.61055,-0.63388 3,-1.78125 3.03942,-2.56008 10.85195,-6.46759 12.75,-6.5625 z m -38.78125,4.28125 c 0.14473,-0.0502 0.34014,0.19987 0.6875,0.6875 0.40526,0.57369 1.51581,3.20993 2.5,5.90625 2.66311,7.45794 6.19373,27.40999 5.09375,28.5 -0.17368,0.22948 -0.34375,-0.15019 -0.34375,-0.78125 0,-0.63105 -1.28062,-5.18615 -2.84375,-10.0625 -4.51571,-13.88323 -6.07894,-20.75189 -5.5,-23.21875 0.17368,-0.63106 0.26152,-0.98105 0.40625,-1.03125 z m 29.8125,12.3125 c 0.11579,0 -1.16483,1.39368 -2.84375,3 -7.75775,7.85951 -12.83951,18.53513 -14.75,31.15625 -0.46315,3.15528 -1.11678,5.96316 -1.40625,6.25 -0.23157,0.22948 -0.67468,-1.03919 -0.90625,-2.875 -0.75262,-5.96635 1.27638,-15.66753 4.75,-22.78125 0.75262,-1.54896 0.82806,-2.2218 1.4375,-3.1875 0.40864,-0.34654 0.79093,-1.15335 1.5,-2.09375 2.58983,-2.84983 6.84611,-7.11289 9.625,-8.375 1.33155,-0.57368 2.47796,-1.09375 2.59375,-1.09375 z m -37.53125,1.4375 1.15625,1.4375 c 0.63683,0.80316 2.25759,2.98184 3.53125,4.875 2.43153,3.55688 8.80067,16.13203 9.4375,18.65625 0.23157,0.80317 -0.56548,-0.45526 -1.78125,-2.75 -1.21577,-2.29476 -3.88458,-6.36617 -5.96875,-9.0625 -4.68939,-6.19583 -6.375,-9.20012 -6.375,-11.4375 l 0,-1.71875 z M 280,224.25 c 0.17922,-0.0183 0.39343,0 0.625,0 1.67892,0 5.2221,3.13484 8.40625,7.4375 3.6473,4.93372 7.87997,15.31634 9.90625,24.09375 0.98419,4.47476 2.65625,15.94966 2.65625,18.53125 l 0,1.84375 -0.9375,-1.71875 c -0.52104,-0.97527 -1.2556,-3.86104 -1.71875,-6.5 -1.33155,-7.57268 -3.42143,-14.89746 -5.96875,-21.4375 -2.54732,-6.48268 -8.00597,-15.68426 -10.4375,-18.09375 -0.36495,-0.35689 -0.65666,-0.55261 -0.84375,-0.625 -0.39106,-0.64506 -1.23081,-1.31446 -1.625,-1.65625 -1.26643,-1.15455 -1.31705,-1.74715 -0.0625,-1.875 z m -2.84375,0.96875 1.375,0.84375 c 1.92561,1.36497 2.6652,1.90935 2.21875,3.65625 -0.24565,1.71279 -0.52764,3.35867 -0.875,3.875 -0.40526,0.80316 -0.8806,0.21081 -1.34375,-1.625 -0.34736,-1.26211 -0.73718,-3.32651 -0.96875,-4.53125 l -0.40625,-2.21875 z m 38.03125,7.65625 c 0.16577,0.0148 0.13611,0.21405 -0.125,0.625 -0.53278,0.44139 -1.83653,2.14973 -2.53125,3.125 -3.7052,4.99108 -9.08291,18.77061 -10.125,26.6875 -0.57894,4.13056 -1.28586,2.24201 -1.34375,-3.4375 -0.11579,-8.20373 3.54057,-17.383 9.15625,-23.0625 2.30127,-2.36645 4.47144,-3.98194 4.96875,-3.9375 z m -38.625,3.59375 c 0.53779,0.11309 2.17047,1.69729 6.03125,5.5625 3.58941,3.67161 7.43127,8.07044 8.53125,9.90625 2.19996,3.72896 4.51481,9.18894 5.09375,12 0.28947,1.60632 -0.29381,0.96963 -3.59375,-3.5625 -2.19996,-2.98317 -5.28523,-6.98183 -6.90625,-8.875 -6.25252,-7.22846 -8.55988,-10.78688 -9.3125,-14.34375 -0.10855,-0.46612 -0.0882,-0.7389 0.15625,-0.6875 z M 319.375,238 c 0.11579,0 -1.29444,1.7211 -3.03125,3.84375 -1.73681,2.18 -4.09213,5.73137 -5.25,7.96875 -2.31575,4.58949 -5.75298,14.98608 -6.96875,21.46875 -1.27366,6.65477 -1.38322,6.52557 -1.09375,-0.875 0.52104,-14.22745 5.63107,-25.7328 13.5625,-30.78125 1.44734,-0.86053 2.66546,-1.625 2.78125,-1.625 z m -42.21875,10.21875 1.75,0.90625 c 0.98419,0.51631 3.3349,2.20104 5.1875,3.75 1.91049,1.60632 3.64343,2.69822 3.875,2.46875 0.28947,-0.22948 0.36118,-0.18794 0.1875,0.15625 -0.17368,0.28685 1.28622,2.76729 3.3125,5.40625 3.87888,5.04845 8.15662,13.00286 10.125,18.625 0.63683,1.89316 1.08454,3.50513 0.96875,3.5625 -0.0579,0.11474 -1.78622,-2.51636 -3.8125,-5.84375 -4.39992,-7.28583 -9.60731,-13.7617 -13.3125,-16.6875 -2.02628,-1.60634 -3.53622,-3.57841 -5.5625,-7.25 l -2.71875,-5.09375 z m 45.625,7.5625 c 0.0392,0 0.0585,0.002 0.0937,0 -1.0299,0.85441 -3.21875,3.34375 -3.21875,3.34375 -2.89468,3.15528 -6.19048,9.0607 -7.40625,14.28125 -1.33155,5.96635 -0.89306,21.29345 0.84375,27.71875 0.63683,2.35212 1.11579,4.34887 1,4.40625 -0.40526,0.40157 -3.83192,-9.16747 -4.46875,-12.4375 -0.98419,-4.99107 -0.9263,-16.6978 0,-20.65625 1.09998,-4.47476 3.5859,-9.69453 5.84375,-12.21875 1.96838,-2.23738 5.57569,-4.4375 7.3125,-4.4375 z m -44.3125,1.96875 c 0.87383,0.0403 1.89345,0.49861 3.5,1.53125 6.19462,3.90107 13.99984,14.22314 23.03125,30.34375 7.23671,13.02271 11.40515,22.84129 5.5,13.03125 -8.39458,-13.88324 -22.05339,-32.40912 -27.4375,-38.03125 -0.56446,-0.58803 -0.84635,-0.8107 -0.90625,-0.78125 l -0.0937,-0.15625 c -0.75262,-0.9179 -2.98916,-2.74394 -4.03125,-3.375 -2.31574,-1.43421 -2.37463,-2.0098 -0.40625,-2.46875 0.27499,-0.0717 0.55247,-0.1072 0.84375,-0.0937 z m -2.1875,2.625 c 0.46315,0 1.15264,0.35355 1.5,0.8125 0.69472,0.86053 0.30591,5.26494 -0.5625,5.78125 -0.63683,0.45896 -0.9431,-0.20899 -1.40625,-3.59375 -0.34736,-2.40949 -0.22597,-3 0.46875,-3 z m 40.59375,15.5 c 0,0 -0.0671,3.02103 -0.125,6.75 -0.52104,15.94851 4.99559,29.37232 15.9375,39.125 6.54197,5.79424 13.93969,8.96085 25.75,10.96875 3.93677,0.68843 7.53686,1.2654 8,1.4375 0.46315,0.17211 5.90986,0.73882 5.5625,1.3125 -0.17368,0.22947 0.34574,0.3596 1.15625,0.1875 2.31574,-0.40159 9.49575,1.16137 11.40625,1.21875 2.95258,0.0573 22.21793,4.06516 26.6875,5.65625 1.56313,0.63105 4.96875,4.57651 4.96875,5.78125 0,0.34422 -1.7892,0.47434 -5.03125,0.1875 -3.93677,-0.28685 -5.97307,-0.79992 -9.5625,-2.40625 -7.46828,-3.32738 -17.88377,-5.69638 -30.5625,-6.84375 -6.54197,-0.57369 -27.73828,-4.29526 -33.875,-5.5 -7.58407,-1.54896 -13.02151,-3.39649 -19.96875,-6.78125 C 309.80836,323.35451 305.63149,320.54753 301,316.1875 l -3.75,-3.59375 3.1875,0.90625 c 9.32088,2.69633 16.84919,6.09102 26.34375,12 7.46828,4.64687 9.94745,5.84238 14,6.875 3.70519,0.97528 4.8125,1.03729 4.8125,0.40625 0,-0.22949 -1.90761,-1.03032 -4.28125,-1.71875 C 325.16017,326.07142 313,309.37201 313,292.21875 c 0,-2.86844 0.28224,-6.31578 0.6875,-7.75 0.57894,-2.23738 2.95593,-8.59375 3.1875,-8.59375 z m -37.5625,1.84375 c 0.29042,0.12328 0.58327,0.23432 0.84375,0.28125 3.41573,0.51631 17.14976,9.22813 21.78125,13.875 1.62102,1.60633 3.83291,4.54433 4.875,6.4375 l 1.84375,3.5 -3.1875,-2.59375 c -1.7947,-1.43422 -5.04543,-3.67539 -7.1875,-4.9375 -2.25785,-1.31948 -7.05041,-5.57281 -11.21875,-9.53125 -2.94612,-2.75258 -6.10034,-5.72303 -7.75,-7.03125 z m 9.46875,24.15625 c 0.24288,-0.0104 0.65166,0.0487 1.28125,0.15625 1.09998,0.1721 4.04643,0.80644 6.59375,1.4375 9.1472,2.12264 20.09846,9.04765 25.65625,16.21875 l 2.5,3.21875 -2.5625,-1.3125 c -1.38945,-0.68843 -2.49079,-1.42677 -2.375,-1.65625 0.34736,-0.57368 -5.43624,-5.3988 -8.5625,-7.0625 -1.56313,-0.86053 -5.96488,-2.62828 -9.84375,-4.0625 -7.06303,-2.52423 -11.23555,-4.61243 -12.625,-6.21875 -0.39802,-0.50197 -0.4673,-0.70138 -0.0625,-0.71875 z" />
      <path
         inkscape:connector-curvature="0"
         style="fill:#cab313;fill-opacity:0.50196078;stroke:none"
         id="path2777"
         d="m 94.076413,157.32975 c -2.19508,0.76831 -5.559508,4.0168 -7.754577,5.6631 -4.390138,3.2926 -4.979112,4.48846 -0.808506,1.52511 3.073116,-2.19505 8.280299,-6.14275 12.94393,-6.72315 0.435646,-0.0542 -1.850953,2.25833 -3.058239,3.57538 -1.646292,1.86581 -1.207284,1.75605 2.634072,-0.76827 2.524347,-1.64631 4.609677,-3.18284 4.609677,-3.40236 0,-0.87801 -4.724989,-1.2966 -8.566357,0.13019 z" />
      <path
         inkscape:connector-curvature="0"
         style="fill:#cab313;fill-opacity:0.50196078;stroke:none"
         id="path2779"
         d="m 26.402772,232.17362 c 0,2.50878 30.779459,25.45701 32.184385,24.05208 0.200704,-0.20071 -3.813372,-3.01057 -9.031668,-6.22182 -5.117946,-3.1109 -11.748786,-8.52418 -15.160749,-11.53474 -3.311614,-3.01057 -7.49973,-7.87639 -7.991968,-6.29552 z" />
    </g>
  </g>
</svg>
